Coordinates
version=1
nRows=9
nColumns=42
inDegrees=yes

Units are S.I. units (second, meters, Newtons, ...)
If the header above contains a line with 'inDegrees', this indicates whether rotational values are in degrees (yes) or radians (no).

endheader
time	pelvis_tilt	pelvis_list	pelvis_rotation	pelvis_tx	pelvis_ty	pelvis_tz	hip_flexion_r	hip_adduction_r	hip_rotation_r	knee_angle_r	knee_adduction_r	knee_angle_r_beta	ankle_angle_r	subtalar_angle_r	mtp_angle_r	hip_flexion_l	hip_adduction_l	hip_rotation_l	knee_angle_l	knee_adduction_l	knee_angle_l_beta	ankle_angle_l	subtalar_angle_l	mtp_angle_l	lumbar_extension	lumbar_bending	lumbar_rotation	arm_flex_r	arm_add_r	arm_rot_r	elbow_flex_r	pro_sup_r	wrist_flex_r	wrist_dev_r	arm_flex_l	arm_add_l	arm_rot_l	elbow_flex_l	pro_sup_l	wrist_flex_l	wrist_dev_l
      0.92000000	      7.55518004	      0.17777136	      8.95449200	     -0.62457287	      0.87182179	      0.16350617	     11.13669552	     -0.51931067	     -5.40776149	     61.02969324	      0.33205530	      1.06516909	     18.14300586	    -15.52532848	     -7.88939839	      7.46748606	      5.79996786	     -4.94432108	     28.84115509	     -5.82620792	      0.50337312	     21.55126532	      1.39651177	     -7.88939839	    -37.02101280	      4.70684197	     -7.00702264	     14.97062345	    -10.86831065	      6.57920547	     43.43315965	     90.00000001	      0.00000000	      0.00000000	     17.03996878	    -15.10108579	     -5.87606145	     36.51776854	     90.00000001	      0.00000000	      0.00000000
      0.93000000	      7.69407787	     -0.05021060	      9.16691571	     -0.61658680	      0.87254251	      0.16318864	     11.97757683	     -0.24808855	     -5.04049310	     59.18636515	      0.57305492	      1.03299694	     18.33562631	    -15.72090266	     -7.87025761	      6.65354498	      5.41837050	     -4.52602628	     28.74438751	     -5.66066185	      0.50168420	     22.36950184	      1.51494862	     -7.87025761	    -37.27141711	      5.08779223	     -7.14258758	     14.90216384	    -10.50948392	      6.25754021	     42.02367645	     90.00000001	      0.00000000	      0.00000000	     17.56549542	    -15.78569216	     -4.10751514	     37.47861319	     90.00000001	      0.00000000	      0.00000000
      0.94000000	      7.43877146	     -0.06560590	      9.22747690	     -0.60878977	      0.87221443	      0.16264442	     13.39708694	     -0.41693429	     -4.87209157	     57.54227112	      0.59929287	      1.00430209	     18.48083737	    -15.19001076	     -7.86385781	      6.38316024	      5.53015758	     -4.46492642	     28.80282319	     -5.92264828	      0.50270410	     22.77474945	      1.51510905	     -7.86385781	    -37.13254126	      5.19190922	     -7.24392594	     14.40377862	    -10.44512041	      6.24143042	     41.50414294	     90.00000001	      0.00000000	      0.00000000	     18.26187508	    -15.99390004	     -3.85497407	     37.99772782	     90.00000001	      0.00000000	      0.00000000
      0.95000000	      7.50798045	     -0.25882035	      9.39784974	     -0.60060480	      0.87256123	      0.16233325	     14.05329088	     -0.22439297	     -4.35509310	     55.06661366	      1.00976757	      0.96109372	     18.47409531	    -15.07278717	     -7.85154279	      5.70815632	      5.18351921	     -4.14698633	     28.87143598	     -5.76407713	      0.50390162	     23.48777076	      1.55748897	     -7.85154279	    -37.27476670	      5.51486092	     -7.33476703	     14.18711577	    -10.21441793	      5.91767716	     40.38279676	     90.00000001	      0.00000000	      0.00000000	     18.82738424	    -16.42224600	     -2.85450212	     38.74424446	     90.00000001	      0.00000000	      0.00000000
      0.96000000	      7.14469210	     -0.14171461	      9.38480771	     -0.59264363	      0.87173494	      0.16190899	     15.43035036	     -0.57921946	     -4.25317479	     53.03182945	      1.02195859	      0.92558003	     18.35723558	    -14.51801586	     -7.84596789	      5.52598600	      5.46033405	     -4.20195149	     28.91422639	     -6.03993721	      0.50464845	     23.81455604	      1.55963941	     -7.84596789	    -36.99309675	      5.43171937	     -7.43478745	     13.58329771	    -10.22380337	      5.84102804	     40.01770864	     90.00000001	      0.00000000	      0.00000000	     19.42720336	    -16.61440095	     -2.64086014	     39.29109942	     90.00000001	      0.00000000	      0.00000000
      0.97000000	      7.15758942	     -0.34406475	      9.62273160	     -0.58447424	      0.87165201	      0.16144825	     15.93412759	     -0.47053903	     -3.82971142	     50.06523954	      1.51495334	      0.87380327	     18.30603441	    -14.41553722	     -7.83772724	      4.97986480	      5.21399445	     -4.03215643	     29.04495763	     -6.19235281	      0.50693014	     24.65504704	      1.48322580	     -7.83772724	    -37.05336770	      5.80905535	     -7.57429011	     13.31685323	    -10.02769554	      5.46683758	     39.08287825	     90.00000001	      0.00000000	      0.00000000	     19.95945707	    -16.99391581	     -1.86651211	     40.02127521	     90.00000001	      0.00000000	      0.00000000
      0.98000000	      7.40192305	     -0.44726274	      9.60121699	     -0.57587480	      0.87211401	      0.16167299	     15.98231493	     -0.22712842	     -3.17526458	     46.68183563	      1.82324676	      0.81475173	     17.47390213	    -15.12639571	     -7.82154031	      3.90584542	      4.85099760	     -3.97219365	     28.76746122	     -5.99595446	      0.50208692	     25.12966732	      1.90501230	     -7.82154031	    -37.38899507	      5.95662912	     -7.46726275	     12.89803330	     -9.79534966	      4.64468434	     38.46623884	     90.00000001	      0.00000000	      0.00000000	     20.46557021	    -17.42316013	     -0.83942440	     40.95379659	     90.00000001	      0.00000000	      0.00000000
      0.99000000	      7.14487183	     -0.41900226	      9.70366343	     -0.56775480	      0.87119792	      0.16135112	     16.75243874	     -0.48499740	     -3.08755991	     43.64286275	      2.05679185	      0.76171165	     17.34409430	    -14.85229544	     -7.81301120	      3.67107008	      4.93432284	     -4.04723880	     28.95992728	     -6.23535727	      0.50544608	     25.75802485	      1.89680406	     -7.81301120	    -37.18226073	      6.01117553	     -7.64116201	     12.42742146	     -9.68729666	      4.35245652	     37.92685890	     90.00000001	      0.00000000	      0.00000000	     20.94826851	    -17.68156397	     -0.51053658	     41.59014495	     90.00000001	      0.00000000	      0.00000000
      1.00000000	      7.07418468	     -0.46298926	      9.79172433	     -0.55936833	      0.87064321	      0.16130618	     17.05389654	     -0.51392232	     -2.97666983	     40.10969294	      2.18079289	      0.70004620	     16.97091853	    -14.82690325	     -7.80385209	      3.14115097	      4.78860520	     -4.16440270	     29.01294329	     -6.32194179	      0.50637139	     26.38665528	      2.13545116	     -7.80385209	    -37.15461094	      6.12365162	     -7.71287510	     12.01238303	     -9.54783211	      3.82697166	     37.37346105	     90.00000001	      0.00000000	      0.00000000	     21.37573907	    -17.97644494	     -0.06095419	     42.37548915	     90.00000001	      0.00000000	      0.00000000
